REM MD5 2a6dff2e118d152d866ceac84e592066
FILE "South Park Rally (USA).bin" BINARY
  TRACK 01 MODE2/2352
    INDEX 01 00:00:00
  TRACK 02 AUDIO
    INDEX 00 06:22:24
    INDEX 01 06:24:24
  TRACK 03 AUDIO
    INDEX 00 10:01:04
    INDEX 01 10:03:04
  TRACK 04 AUDIO
    INDEX 00 13:24:13
    INDEX 01 13:26:13
  TRACK 05 AUDIO
    INDEX 00 17:34:38
    INDEX 01 17:36:38
  TRACK 06 AUDIO
    INDEX 00 21:04:69
    INDEX 01 21:06:69
  TRACK 07 AUDIO
    INDEX 00 24:38:71
    INDEX 01 24:40:71
  TRACK 08 AUDIO
    INDEX 00 28:10:61
    INDEX 01 28:12:61
  TRACK 09 AUDIO
    INDEX 00 31:45:31
    INDEX 01 31:47:31
  TRACK 10 AUDIO
    INDEX 00 35:25:60
    INDEX 01 35:27:60
  TRACK 11 AUDIO
    INDEX 00 35:57:32
    INDEX 01 35:59:32
  TRACK 12 AUDIO
    INDEX 00 36:31:63
    INDEX 01 36:33:63
  TRACK 13 AUDIO
    INDEX 00 37:07:62
    INDEX 01 37:09:62
  TRACK 14 AUDIO
    INDEX 00 37:38:00
    INDEX 01 37:40:00
  TRACK 15 AUDIO
    INDEX 00 37:59:46
    INDEX 01 38:01:46
  TRACK 16 AUDIO
    INDEX 00 38:27:05
    INDEX 01 38:29:05
  TRACK 17 AUDIO
    INDEX 00 39:14:56
    INDEX 01 39:16:56
  TRACK 18 AUDIO
    INDEX 00 39:45:69
    INDEX 01 39:47:69
  TRACK 19 AUDIO
    INDEX 00 40:13:50
    INDEX 01 40:15:50
  TRACK 20 AUDIO
    INDEX 00 40:44:51
    INDEX 01 40:46:51
  TRACK 21 AUDIO
    INDEX 00 41:05:28
    INDEX 01 41:07:28
  TRACK 22 AUDIO
    INDEX 00 41:20:07
    INDEX 01 41:22:07
  TRACK 23 AUDIO
    INDEX 00 41:42:28
    INDEX 01 41:44:28
  TRACK 24 AUDIO
    INDEX 00 41:50:28
    INDEX 01 41:52:28
  TRACK 25 AUDIO
    INDEX 00 42:13:47
    INDEX 01 42:15:47
  TRACK 26 AUDIO
    INDEX 00 42:39:51
    INDEX 01 42:41:51
  TRACK 27 AUDIO
    INDEX 00 42:48:49
    INDEX 01 42:50:49
  TRACK 28 AUDIO
    INDEX 00 42:56:11
    INDEX 01 42:58:11
  TRACK 29 AUDIO
    INDEX 00 43:03:17
    INDEX 01 43:05:17
  TRACK 30 AUDIO
    INDEX 00 43:10:70
    INDEX 01 43:12:70
  TRACK 31 AUDIO
    INDEX 00 43:19:45
    INDEX 01 43:21:45
  TRACK 32 AUDIO
    INDEX 00 43:26:39
    INDEX 01 43:28:39
  TRACK 33 AUDIO
    INDEX 00 43:32:18
    INDEX 01 43:34:18
  TRACK 34 AUDIO
    INDEX 00 43:40:28
    INDEX 01 43:42:28
  TRACK 35 AUDIO
    INDEX 00 43:47:10
    INDEX 01 43:49:10
  TRACK 36 AUDIO
    INDEX 00 43:52:21
    INDEX 01 43:54:21
  TRACK 37 AUDIO
    INDEX 00 43:58:17
    INDEX 01 44:00:17
  TRACK 38 AUDIO
    INDEX 00 44:06:50
    INDEX 01 44:08:50
  TRACK 39 AUDIO
    INDEX 00 44:13:16
    INDEX 01 44:15:16
  TRACK 40 AUDIO
    INDEX 00 44:21:29
    INDEX 01 44:23:29
  TRACK 41 AUDIO
    INDEX 00 44:29:66
    INDEX 01 44:31:66
  TRACK 42 AUDIO
    INDEX 00 44:38:73
    INDEX 01 44:40:73
  TRACK 43 AUDIO
    INDEX 00 44:47:11
    INDEX 01 44:49:11
  TRACK 44 AUDIO
    INDEX 00 44:55:73
    INDEX 01 44:57:73
  TRACK 45 AUDIO
    INDEX 00 45:03:63
    INDEX 01 45:05:63
  TRACK 46 AUDIO
    INDEX 00 45:12:25
    INDEX 01 45:14:25
  TRACK 47 AUDIO
    INDEX 00 45:20:03
    INDEX 01 45:22:03
  TRACK 48 AUDIO
    INDEX 00 45:27:59
    INDEX 01 45:29:59
  TRACK 49 AUDIO
    INDEX 00 45:36:17
    INDEX 01 45:38:17
  TRACK 50 AUDIO
    INDEX 00 45:46:74
    INDEX 01 45:48:74
  TRACK 51 AUDIO
    INDEX 00 45:54:30
    INDEX 01 45:56:30
  TRACK 52 AUDIO
    INDEX 00 46:02:60
    INDEX 01 46:04:60
  TRACK 53 AUDIO
    INDEX 00 46:11:15
    INDEX 01 46:13:15
  TRACK 54 AUDIO
    INDEX 00 46:19:37
    INDEX 01 46:21:37
  TRACK 55 AUDIO
    INDEX 00 46:27:12
    INDEX 01 46:29:12
  TRACK 56 AUDIO
    INDEX 00 46:36:46
    INDEX 01 46:38:46
  TRACK 57 AUDIO
    INDEX 00 46:44:51
    INDEX 01 46:46:51
  TRACK 58 AUDIO
    INDEX 00 46:52:54
    INDEX 01 46:54:54
  TRACK 59 AUDIO
    INDEX 00 47:01:20
    INDEX 01 47:03:20
  TRACK 60 AUDIO
    INDEX 00 47:09:63
    INDEX 01 47:11:63
  TRACK 61 AUDIO
    INDEX 00 47:32:69
    INDEX 01 47:34:69
  TRACK 62 AUDIO
    INDEX 00 47:41:25
    INDEX 01 47:43:25
  TRACK 63 AUDIO
    INDEX 00 47:49:27
    INDEX 01 47:51:27
  TRACK 64 AUDIO
    INDEX 00 47:56:56
    INDEX 01 47:58:56
  TRACK 65 AUDIO
    INDEX 00 48:04:53
    INDEX 01 48:06:53
  TRACK 66 AUDIO
    INDEX 00 48:14:32
    INDEX 01 48:16:32
  TRACK 67 AUDIO
    INDEX 00 48:21:61
    INDEX 01 48:23:61
  TRACK 68 AUDIO
    INDEX 00 48:31:41
    INDEX 01 48:33:41
  TRACK 69 AUDIO
    INDEX 00 48:41:31
    INDEX 01 48:43:31
  TRACK 70 AUDIO
    INDEX 00 48:49:74
    INDEX 01 48:51:74
  TRACK 71 AUDIO
    INDEX 00 48:58:12
    INDEX 01 49:00:12
  TRACK 72 AUDIO
    INDEX 00 49:06:66
    INDEX 01 49:08:66
  TRACK 73 AUDIO
    INDEX 00 49:15:10
    INDEX 01 49:17:10
  TRACK 74 AUDIO
    INDEX 00 49:25:07
    INDEX 01 49:27:07
  TRACK 75 AUDIO
    INDEX 00 49:33:70
    INDEX 01 49:35:70
  TRACK 76 AUDIO
    INDEX 00 52:35:70
    INDEX 01 52:37:70
REM LEADOUT 55:37:70
